# xmcd
#
# Track frame offsets:
#	150
#	19512
#	36875
#	56224
#	77598
#	99602
#	122023
#	141612
#	162458
#	182493
#	203906
#	224052
#
# Disc length: 3291 seconds
#
# Revision: 10
# Processed by: cddbd v1.5.2PL0 Copyright (c) Steve Scherf et al.
# Submitted via: EasyCDDAExtractor 15.3.0.1
#
DISCID=b10cd90c
DTITLE=Cristian - Azul
DYEAR=2001
DGENRE=Latin
TTITLE0=Yo Queria
TTITLE1=Nuestro Amor
TTITLE2=Lloviendo Estrellas
TTITLE3=Solo
TTITLE4=Con Ella
TTITLE5=Dos Amantes
TTITLE6=Azul
TTITLE7=Gli Amori, Los Amores
TTITLE8=Llorar Por Dentro
TTITLE9=Amantes De Ocasion
TTITLE10=Cupido
TTITLE11=Si Pudiera
EXTD=
EXTT0=
EXTT1=
EXTT2=
EXTT3=
EXTT4=
EXTT5=
EXTT6=
EXTT7=
EXTT8=
EXTT9=
EXTT10=
EXTT11=
PLAYORDER=
